<svg version="1.1" xmlns="http://www.w3.org/2000/svg" viewBox="0 0 167 77" width="167" height="77">
  <!-- svg-source:excalidraw -->
  
  <defs>
    <style>
      @font-face {
        font-family: "Virgil";
        src: url("https://excalidraw.com/FG_Virgil.woff2");
      }
      @font-face {
        font-family: "Cascadia";
        src: url("https://excalidraw.com/Cascadia.woff2");
      }
    </style>
  </defs>
  <g transform="translate(96 10) rotate(0 30.5 28.5)"><path d="M31.561865865023062 0.5240576184473476 C38.07829493466734 0.17815993352012427, 46.68992670794131 3.5126648010096915, 51.368080643798955 7.5017750922922275 C56.0462345796566 11.490885383574764, 58.77432376528424 18.438671015116814, 59.630789480168914 24.458719366142564 C60.48725519505359 30.478767717168314, 59.61987570503196 38.49298219286649, 56.50687493310701 43.62206519844672 C53.393874161182055 48.75114820402695, 47.177429195506676 53.343417740583924, 40.95278484861918 55.23321739962391 C34.72814050173169 57.1230170586639, 25.434902915959363 57.02904272111776, 19.15900885178202 54.96086315268664 C12.883114787604676 52.89268358425552, 6.451415336198471 48.257535149100754, 3.2974204635551274 42.8241399890372 C0.14342559091178364 37.390744828973645, -0.9406225937344803 28.487510638896417, 0.23503961592195566 22.360492192305305 C1.4107018255783916 16.233473745714193, 4.81989268916177 9.690176155942966, 10.351393721493743 6.062029309490526 C15.882894753825717 2.4338824630380866, 28.898279399059177 1.4830289725509473, 33.42404580991379 0.5916111135906661 C37.94981222076841 -0.29980674536961516, 37.364366236173154 0.44520674665469784, 37.50599218662143 0.7135221557288389 M16.739249134667293 3.2041544517643423 C21.832674643321702 -0.1208222154458447, 31.018908383885456 -1.7375719050996086, 37.233012483947945 -0.45250134436390965 C43.44711658401044 0.8325692163717893, 50.267154727362794 5.8339403259143685, 54.02387373504224 10.914577816178536 C57.78059274272168 15.995215306442702, 59.813328065727106 23.917630470555096, 59.77332653002462 30.031323597221093 C59.73332499432213 36.14501672388709, 57.97002029827609 42.88723856212173, 53.78386452082732 47.59673657617451 C49.597708743378554 52.306234590227284, 41.06577195622157 57.36934891637538, 34.656391865332 58.28831168153777 C28.247011774442427 59.20727444670016, 20.882796450869733 56.450398554750215, 15.327583975489897 53.110513167148845 C9.772371500110062 49.770627779547475, 3.3552944748755054 44.34634667839584, 1.3251170130529921 38.248999355929556 C-0.7050604487695211 32.15165203346327, 0.7267872765752155 22.24928162031269, 3.146519204554817 16.526429232351152 C5.566251132534418 10.803576844389614, 13.75784273013551 5.91008708803694, 15.843508580930601 3.9118850281603343 C17.92917443172569 1.9136829682837284, 15.493292284898695 4.444695355412968, 15.660514309325366 4.537216873091516" stroke="#000000" stroke-width="1" fill="none"></path></g><g transform="translate(75 34) rotate(0 10 5)"><path d="M10.01969177121947 0.2386482346822998 C13.7029531736103 1.5706112328758257, 15.52124383839391 4.352495675533444, 19.815658137554095 5.413395463694301 M10.631524825307753 0.2403945495192229 C13.500576428267262 1.8985256121675573, 16.409356267524615 3.4710262298728334, 20.293115468785363 5.711923434859541 M19.452831688877502 6.305306662774551 C16.693307529661567 6.978374571692861, 14.23961264690249 9.069137889901228, 10.377653149855078 9.681263692942837 M20.05943601997609 6.063842602658157 C17.170251481654002 7.38706353550572, 13.890954233652295 8.235865070476429, 10.765203655003576 10.211188984629016 M9.90057435246608 11.074903075107166 C7.99889430219191 8.450016323117206, 5.620995334455545 7.709948015350536, 1.0840418233791258 6.751435470630348 M10.682033432168412 9.80879712807402 C7.609527754350399 9.11944216870903, 5.582367178368 7.724816092271709, -0.26533235694512214 5.424440211423455 M0.9366342258694897 5.148308512548295 C1.0514098643833247 4.017910709330676, 4.339522059286065 4.105522652559028, 11.93384980450875 0.06511713857252532 M-0.3630181781434646 5.904297305941645 C4.03703946572886 4.153311473348394, 8.489637743788505 1.946255022651095, 10.66967247459883 0.3923173840098996" stroke="red" stroke-width="1" fill="none"></path></g><g><g transform="translate(155 42) rotate(0 -12.407578467633584 -0.31023058460868924)"><path d="M-0.3063538413494825 0.7937242191284894 C-4.5938677848627165 0.9414902251213788, -21.41776039811472 0.5544892709702254, -25.738218448683618 0.4572635930031539 M1.7336716626025739 0.1648254888318479 C-2.6878083900672696 -0.015463603828102385, -21.740703476077567 -1.6708270735479893, -26.548828597869726 -1.4252477694489063" stroke="red" stroke-width="1" fill="none"></path></g></g><g transform="translate(10 10) rotate(0 31.5 28.5)"><path d="M43.03767565081863 1.4092924907786077 C49.24992161812871 3.055376689381231, 55.17115256938457 9.12150743194405, 58.32871030509845 14.267783620818786 C61.48626804081233 19.414059809693523, 62.8973062883683 26.449162839707455, 61.983022065101906 32.286949624027024 C61.068737841835514 38.12473640834659, 57.91126677875411 45.11377710823657, 52.843004965500086 49.294504326736195 C47.77474315224606 53.47523154523582, 38.44525676983732 57.29020090512504, 31.573451185577767 57.37131293502478 C24.701645601318216 57.452424964924525, 16.70285052686664 53.89689938957955, 11.612171459942768 49.78117650613464 C6.521492393018897 45.66545362268973, 2.4039282385222496 38.49263749950939, 1.0293767840345396 32.67697563435534 C-0.3451746704531704 26.86131376920128, -0.050645155732893965 19.924526193054476, 3.3648627330165084 14.887205315210302 C6.780370621765911 9.849884437366129, 14.33039151474889 4.342889912219096, 21.522424116530953 2.4530503672902952 C28.714456718313016 0.5632108223614942, 41.78469526735346 2.809637333018383, 46.5170583437089 3.548168045637496 C51.24942142006433 4.286698758256609, 50.088195565874194 6.426594353554618, 49.91660257466354 6.884234643004973" stroke="#000" stroke-width="1.5" fill="none" stroke-dasharray="3 6"></path></g></svg>