<svg version="1.1" xmlns="http://www.w3.org/2000/svg" viewBox="0 0 180 78" width="180" height="78">
  <!-- svg-source:excalidraw -->
  
  <defs>
    <style>
      @font-face {
        font-family: "Virgil";
        src: url("https://excalidraw.com/FG_Virgil.woff2");
      }
      @font-face {
        font-family: "Cascadia";
        src: url("https://excalidraw.com/Cascadia.woff2");
      }
    </style>
  </defs>
  <g stroke-opacity="0.5" fill-opacity="0.5" transform="translate(10 22) rotate(0 15 23)"><path d="M15.230417819693685 -0.5014255661517382 L29.68649628944695 22.86238789372146 L14.326017828658223 45.20660716108978 L-1.8657270353287458 23.490277646109462" stroke="none" stroke-width="0" fill="red" fill-rule="evenodd"></path><path d="M17.243416307494044 0.9485790450125933 C19.805772204212843 5.82986562082544, 23.719737242981793 10.569304013792426, 28.877333341166377 23.75771144218743 M15.214728311635554 0.15033095981925726 C21.379976599663497 7.821335438434034, 24.43057302031666 14.711921460721642, 30.492950783111155 23.227251558564603 M29.817450700327754 24.162755521014333 C25.2614565952681 32.92908101694658, 18.951486599538473 39.90642625613138, 14.281016705557704 44.957393975928426 M30.309524641372263 23.063963680528104 C26.156255984660238 30.529524474609644, 21.93616880344227 38.03375631889328, 16.79470302257687 45.10960280802101 M14.858905671164393 44.23565277643502 C12.827523040603845 40.36344704445451, 5.458635411988942 35.26492997914552, -1.5893954653292894 22.29149308986962 M16.00320650730282 46.781314014457166 C11.387176171671598 37.911639628186826, 4.556638728808611 31.173229532875123, -0.9724753638729453 23.641710489057004 M1.8337846379727125 22.618259580805898 C1.2840914057195185 18.33224145717919, 8.014789313226938 13.865017906054856, 17.933272121474147 0.9785756785422564 M0.6921667316928506 23.580305545590818 C6.415367728285492 14.988431374095379, 10.338111446611585 6.925986552350221, 16.06534750852734 0.3895841231569648" stroke="#000000" stroke-width="1" fill="none"></path></g><g stroke-opacity="0.5" fill-opacity="0.5" transform="translate(17 33) rotate(0 8 14)"><path d="M7.62445723824203 1.1753471810370684 L15.183775840327144 15.043588431552052 L9.057179449126124 28.109188767150044 L-1.3490209002047777 16.412126215174794" stroke="none" stroke-width="0" fill="blue" fill-rule="evenodd"></path><path d="M9.005307714017121 1.2933048188160645 C12.733042778520984 3.638270379565932, 12.581824847925315 9.613465779096291, 14.390266844054239 14.40692533032859 M9.758863422733025 -0.5717968414204833 C9.540269372729425 2.6611468893480303, 12.40162144067772 5.816352944570702, 16.800033694686256 15.404957743371018 M17.021971932162497 14.380328564128723 C14.968733388206735 18.52291115805913, 10.307834078863388 23.151317900394012, 9.096484440083325 28.575214064548877 M15.580083963490448 14.382098735853834 C13.843903479213205 17.70012071404847, 12.117965855288572 21.490415364792103, 9.501262654808839 27.85757916695861 M9.630518161530992 26.819696141820106 C7.06647233724725 23.88177154810837, 5.117625019517216 21.153195034361108, -1.0841393239962136 15.0436895052786 M8.370237387086457 27.704059249007845 C6.590758320855983 23.737172415846803, 3.9322580137051832 20.07022603026643, 0.28580353811689396 15.586295956032483 M-1.001244952739203 16.6651426986148 C1.5379219870776057 8.447361274969591, 4.489458191026611 3.86695860685553, 9.64567421556391 -1.4301992205959015 M0.41915192104302634 15.645495933700717 C3.124049403433028 11.199049331084275, 5.58240828681998 5.742342981087801, 8.686641503475066 -0.055675336898348804" stroke="#000000" stroke-width="1" fill="none"></path></g><g stroke-opacity="0.5" fill-opacity="0.5" transform="translate(41 10) rotate(0 8.5 4.5)"><path d="M1.4030017538927495 -0.3023378430865704 C5.206343956291676 0.896153756165877, 14.65099923470989 1.0312513522151856, 18.634322954621165 0.20334251830354333 M0.4428008929360657 0.3419029168318958 C5.242399422777817 -0.36081474665552377, 9.733326430479066 -0.5286615440621971, 17.107166752265766 -0.05370137919671836 M16.51872847294435 -0.6578825033269823 C17.77132079628296 2.376389284618199, 16.22840776768513 6.018823857139796, 16.893630134221166 9.820208989921957 M16.780882265837864 -0.23214574051089584 C16.99600259980187 2.570588161284104, 17.033748133685442 4.29340677796863, 17.377723298640923 8.981348695931956 M17.1062408789061 10.15346567640081 C13.639593846909703 9.87773831824772, 8.711592654604466 8.235051757497713, 0.19276208421215424 8.018567004892976 M16.84282246087678 8.983008982939646 C10.278722290834413 8.787841838840396, 5.869051794940606 9.435451145712287, 0.2136901855934411 8.438948780996725 M0.0812282047234476 9.56667020553723 C-0.7926568962726743 5.943426194787025, 0.5971840195264666 2.4461000955663623, -0.2993192383088171 0.16104759508743893 M0.05147609082050625 8.902379996655508 C0.16365009102970365 6.2481540803331885, -0.4638720333203673 3.9992271122988314, -0.18469288232736292 0.08987717586569494" stroke="#000000" stroke-width="1" fill="none"></path></g><g><g stroke-opacity="0.5" fill-opacity="0.5" transform="translate(33 27) rotate(0 5.56428071230647 -4.2082487754151146)"><path d="M0.6267481159418822 -0.6416953694075346 C0.5811657777676981 -0.8467413754512867, -1.3014189331481851 0.5733446706086394, 0.12282332889735703 -0.9950907956808808 C1.5470655909428992 -2.563526261970401, 7.5205949496477835 -8.694518885140617, 9.172201688215136 -10.052308167144655 M-0.5033478525280952 1.6358106163144113 C-0.2083822070558865 1.092483205298583, 0.3517172579964001 -0.7695725890994067, 2.3742601129412653 -2.5900882121920583 C4.3968029678861305 -4.41060383528471, 10.31155158251524 -8.366893740197023, 11.631909277141094 -9.287283122241497" stroke="#000000" stroke-width="1" fill="none"></path></g></g><g><g stroke-opacity="0.5" fill-opacity="0.5" transform="translate(41 46) rotate(0 45.411708502843965 -1.1188592184334993)"><path d="M-0.5983766209334135 -0.23786907680332658 C14.687407858048875 -0.43528412270049255, 75.94347412871818 -2.0603326448549826, 91.42179362662137 -1.999849360063672 M1.288336923737079 -1.4083542874641717 C16.391136965372908 -1.4175444842564564, 75.1101791773426 -0.9509304951814314, 90.17018981697038 -0.9873450228758156" stroke="#000000" stroke-width="1" fill="none"></path></g></g><g stroke-opacity="0.5" fill-opacity="0.5" transform="translate(132 25) rotate(0 19 18)"><path d="M19.77155959716735 0.7422694771888736 C23.479730989418677 0.4159972055179182, 27.7180581785706 1.915104857718477, 30.572804236059113 4.315725355911354 C33.427550293547625 6.716345854104231, 36.15830951396564 11.222943273075801, 36.90003594209842 15.145992466346136 C37.6417623702312 19.06904165961647, 36.74797140401654 24.719658147926946, 35.023162804855794 27.854020515533364 C33.29835420569505 30.98838288313978, 30.38931989005455 32.7658666291465, 26.551184347133947 33.95216667198464 C22.713048804213344 35.13846671482278, 16.147543615141572 36.01662935039332, 11.994349547332178 34.97182077256222 C7.841155479522781 33.92701219473111, 3.5146597698310647 31.08049661791713, 1.6320199402775692 27.683315204997992 C-0.25061988927592616 24.286133792078854, -0.06587065842918116 18.589892749303587, 0.6985105700112051 14.588732295047393 C1.4628917984515915 10.587571840791199, 3.135716680246477 6.067048045707553, 6.2183073109198865 3.676352479460835 C9.300897941593297 1.2856569132141176, 16.77467860037421 0.8103965773353027, 19.194054354051662 0.2445588975670887 C21.613430107729116 -0.32127878220112527, 20.615609230170264 0.03768319070232215, 20.73456183298461 0.28132640085155103 M11.197322645213212 1.918513299102118 C14.77260483111129 0.2306275374157647, 19.706827496479043 0.42843683707767344, 23.49231640966447 1.0721448348193547 C27.277805322849893 1.715852832561036, 31.335550899633958 2.8784566785692096, 33.910256124325755 5.780761285552206 C36.48496134901755 8.683065892535202, 39.27126424280679 14.240044101160333, 38.94054775781525 18.485972476717333 C38.60983127282372 22.731900852274332, 34.89527204671028 28.603289500172835, 31.92595721437654 31.25633153889421 C28.9566423820428 33.90937357761558, 25.057721036864717 34.192856790452915, 21.124658763812814 34.40422470904557 C17.19159649076091 34.61559262763823, 11.758507497422782 34.12704807120778, 8.327583576065122 32.524539050450144 C4.896659654707461 30.922030029692504, 1.6101449940040025 28.224328521892243, 0.539115235666852 24.789170584499736 C-0.5319145226702984 21.35401264710723, 0.13083374321079222 15.533951786529657, 1.9014050260422195 11.913591426095111 C3.6719763088736466 8.293231065660565, 9.847322452290879 4.774803287701975, 11.162542932655416 3.0670084218924565 C12.477763413019954 1.3592135560829384, 10.04120845146736 1.7870766391021629, 9.792727908229441 1.6668222312380028" stroke="none" stroke-width="0" fill="#000"></path><path d="M28.3927220503445 2.8261513974126977 C31.79858902799455 4.160957278453207, 34.51721072824783 7.115184699383013, 36.13179760201745 10.596350327235667 C37.74638447578707 14.077515955088321, 39.26830673439637 19.940917505092617, 38.08024329296221 23.71314516452862 C36.89217985152805 27.48537282396462, 32.68070219785114 31.207933048110444, 29.003416953412486 33.22971628385169 C25.326131708973833 35.25149951959293, 20.03390291067714 36.29603759646796, 16.01653182633028 35.84384457897608 C11.99916074198342 35.3916515614842, 7.509803566935016 33.400133420973035, 4.899190447331339 30.516558178900418 C2.288577327727662 27.6329829368278, 0.5861974973663813 22.496850408276092, 0.3528531087082172 18.54239312654037 C0.11950872005005309 14.587935844804651, 1.2572566802701268 9.765788903754988, 3.4991241153823545 6.789814488486096 C5.7409915504945825 3.813840073217204, 9.130973713198856 1.0891386207343396, 13.804057719381584 0.6865466349270228 C18.477141725564312 0.283954649119706, 28.0650597243558 3.1836545621949686, 31.53762815247873 4.374262573642195 C35.01019658060166 5.564870585089421, 35.00498951956924 7.480986601754752, 34.63946828811916 7.830194703610383 M14.126337474132633 0.13180389156007877 C18.186271496597087 -0.9214104471149975, 25.614414523052858 -0.8043151724066382, 29.342656021264723 1.2557892803798332 C33.07089751947659 3.3158937331663045, 35.202726823674105 8.496133275779414, 36.49578646340383 12.492430608278907 C37.78884610313356 16.4887279407784, 38.44675119177166 21.954810367357155, 37.10101385964309 25.233573275376788 C35.75527652751452 28.51233618339642, 32.150044768252776 30.369180232730994, 28.42136247063239 32.1650080563967 C24.692680173012 33.960835880062405, 18.928503432222726 36.507884251122796, 14.728920073920767 36.00854021737103 C10.529336715618808 35.50919618361926, 5.604352724176237 32.119842058661334, 3.2238623208206363 29.168943853886102 C0.8433719174650358 26.21804564911087, 0.23580245923227316 22.07009515474872, 0.44597765378716403 18.303150988719633 C0.6561528483420549 14.536206822690543, 2.0333115366933447 9.592852593246896, 4.4849134881499815 6.567278857711564 C6.936515439606618 3.5417051221762326, 13.094660960614412 1.2892555429281416, 15.155589362526985 0.1497085755076455 C17.21651776443956 -0.9898383919128506, 16.544317876802147 -0.8151641484853759, 16.85048389962542 -0.2700029468114131" stroke="#000000" stroke-width="1" fill="none"></path></g><g><g stroke-opacity="0.5" fill-opacity="0.5" transform="translate(129 45) rotate(0 1.7558683199567895 -2.158441203024978)"><path d="M-0.6596094500273466 0.7922377299517394 C-0.4912517797201872 0.11867446017762029, -0.2866088997572661 -4.6648668496559065, 0.5074625004082918 -5.077642791345715 C1.3015339005738498 -5.490418733035524, 3.5789669264107946 -2.654161891217033, 4.104818950966001 -1.6844179201871157 C4.630670975521207 -0.7146739491571984, 4.318015729263426 0.5039339414487283, 3.66257464773953 0.7408210348337889 C3.0071335662156344 0.9777081282188496, 0.6286210048943759 -0.1354727435857058, 0.17217246182262902 -0.2630953598767519 M1.1949568593688311 0.1625585928373039 C1.2936810177750888 -0.31025764536733424, -0.6281974410824478 -4.04534515750284, -0.17416515050455939 -4.105980005580932 C0.2798671400733291 -4.1666148536590235, 3.1805688470788303 -0.6478493244635559, 3.919150602836162 -0.20125049563124753 C4.657732358593494 0.24534833320106086, 5.111925486344845 -1.4581819813636443, 4.257325384039432 -1.4263870325870813 C3.40272528173402 -1.3945920838105184, -0.3590890711359679 -0.06855280430987479, -1.2084500109963119 -0.010480802971869707" stroke="#000000" stroke-width="1" fill="none"></path></g></g></svg>